<?xml version="1.0" standalone="no"?>
<!DOCTYPE svg PUBLIC "-//W3C//DTD SVG 20010904//EN"
 "http://www.w3.org/TR/2001/REC-SVG-20010904/DTD/svg10.dtd">
<svg version="1.0" xmlns="http://www.w3.org/2000/svg"
 width="1024.000000pt" height="1024.000000pt" viewBox="0 0 1024.000000 1024.000000"
 preserveAspectRatio="xMidYMid meet">

<g transform="translate(0.000000,1024.000000) scale(0.100000,-0.100000)"
fill="#000000" stroke="none">
<path d="M6774 8558 c-3 -11 -9 -73 -13 -137 l-6 -116 -84 103 c-46 56 -89
102 -96 102 -7 0 -18 -7 -25 -15 -18 -22 -6 -44 94 -163 47 -56 86 -104 86
-107 0 -2 -57 -6 -127 -7 l-128 -3 0 -25 c0 -30 24 -37 137 -39 l78 -1 -80
-76 c-44 -42 -80 -84 -80 -93 0 -20 19 -41 35 -41 7 0 51 37 98 83 l86 83 3
-120 c3 -100 6 -121 21 -130 12 -8 22 -8 34 0 15 9 17 26 14 132 -1 67 1 122
6 122 4 0 51 -46 105 -102 83 -89 99 -102 115 -92 10 6 19 18 21 27 2 9 -35
57 -83 109 l-86 93 28 6 c15 4 62 7 104 8 87 1 109 14 89 51 -11 21 -17 22
-131 18 -65 -2 -119 -3 -119 -3 0 1 53 54 118 118 100 100 115 119 106 134
-23 37 -44 26 -153 -81 -59 -58 -109 -106 -112 -106 -2 0 -1 59 4 131 5 72 6
138 3 145 -9 23 -54 17 -62 -8z"/>
<path d="M7551 8562 c-5 -10 -11 -72 -12 -136 -1 -64 -5 -116 -9 -114 -4 2
-44 47 -89 101 -45 53 -86 97 -91 97 -5 0 -16 -7 -24 -16 -21 -21 -9 -43 93
-164 45 -52 81 -98 81 -102 0 -4 -57 -9 -127 -10 l-128 -3 0 -25 c0 -31 23
-38 135 -39 l85 -1 -79 -79 c-79 -80 -89 -102 -54 -125 15 -9 32 3 108 79 l89
89 3 -130 c3 -127 3 -129 27 -132 13 -2 27 2 32 10 5 7 8 64 8 126 -1 99 4
136 14 121 1 -2 42 -48 91 -102 67 -73 94 -97 110 -95 14 2 22 11 24 28 2 20
-16 46 -85 120 l-88 95 109 5 c115 5 138 16 123 55 -6 15 -20 17 -127 14 -66
-2 -120 -3 -120 -3 0 1 50 51 111 112 87 87 110 116 107 134 -6 46 -43 27
-151 -79 -57 -57 -107 -103 -111 -103 -3 0 -5 64 -4 143 3 139 3 142 -19 145
-13 2 -26 -4 -32 -16z"/>
<path d="M8376 8565 c-3 -9 -6 -44 -7 -78 -1 -34 -4 -89 -8 -121 l-6 -60 -84
103 c-83 102 -102 114 -124 79 -13 -20 10 -56 113 -173 38 -44 70 -83 70 -87
0 -4 -57 -9 -127 -10 -124 -3 -128 -4 -131 -26 -5 -33 20 -40 143 -41 l80 -1
-82 -81 c-46 -45 -83 -85 -83 -89 0 -12 29 -40 42 -40 6 0 47 36 92 80 l81 79
10 -122 10 -122 28 -3 c17 -2 27 1 28 10 0 7 0 64 -1 126 -1 62 2 117 5 122 3
5 45 -33 92 -86 96 -106 117 -122 139 -103 26 21 14 43 -72 136 -98 106 -100
101 45 105 66 2 86 7 94 20 8 12 7 21 -3 33 -12 15 -31 17 -127 13 -62 -2
-113 -1 -113 2 0 2 51 55 112 117 96 96 111 116 102 131 -6 9 -18 18 -26 20
-9 2 -66 -45 -128 -105 l-112 -107 3 144 4 145 -26 3 c-17 2 -29 -3 -33 -13z"/>
<path d="M4721 8498 c-287 -19 -557 -109 -805 -269 -105 -67 -106 -68 -106
-193 0 -96 -27 -371 -41 -421 -6 -22 -27 -70 -47 -107 l-35 -66 16 -44 c25
-64 22 -104 -9 -135 -23 -22 -31 -25 -73 -20 -26 3 -105 28 -177 55 -157 61
-179 66 -273 63 -80 -3 -82 -4 -191 -99 -112 -96 -248 -368 -301 -599 -35
-158 -66 -432 -51 -458 5 -10 27 3 83 53 42 37 103 85 135 107 33 22 91 62
129 89 83 59 335 185 495 249 448 177 909 246 1559 234 649 -12 1186 -87 1566
-217 152 -53 365 -163 479 -249 49 -36 101 -74 117 -84 l28 -18 -29 108 c-87
328 -228 606 -432 851 -126 151 -198 248 -204 275 -4 20 -16 33 -37 42 -18 8
-52 28 -77 45 -25 16 -56 30 -69 30 -13 0 -90 -16 -172 -35 -162 -38 -201 -42
-217 -22 -15 17 24 92 135 261 81 122 85 130 80 173 -2 24 -6 46 -8 47 -2 2
-49 34 -104 71 -249 167 -566 269 -865 280 -256 10 -391 11 -499 3z"/>
<path d="M8040 6944 c-167 -36 -339 -170 -413 -324 -66 -136 -82 -277 -47
-414 42 -167 153 -304 309 -385 61 -32 80 -46 70 -52 -8 -6 -45 -28 -84 -51
-143 -85 -305 -271 -389 -449 -30 -63 -85 -247 -86 -285 0 -14 119 -96 210
-147 81 -44 235 -98 366 -128 79 -18 130 -22 254 -22 170 -1 254 12 420 65
119 38 187 72 318 156 l102 67 -6 55 c-35 307 -225 573 -515 719 l-117 58 63
42 c233 153 335 458 237 704 -81 200 -237 339 -439 392 -70 18 -166 18 -253
-1z m494 -460 c33 -32 10 -79 -36 -72 -17 2 -24 11 -26 31 -6 49 30 73 62 41z
m-719 -44 c0 -63 -66 -67 -73 -4 -4 35 20 56 51 45 17 -6 22 -17 22 -41z m555
-118 c17 -14 20 -22 12 -43 -13 -32 -84 -97 -131 -117 -54 -23 -156 -20 -216
7 -62 27 -125 87 -125 118 0 49 65 50 91 2 16 -31 94 -62 151 -60 60 1 98 20
140 71 37 45 47 47 78 22z"/>
<path d="M6690 6427 c0 -89 -3 -172 -6 -184 -6 -22 -6 -22 -33 -3 -22 17 -54
21 -226 30 -355 17 -1095 6 -1208 -19 -69 -16 -109 -81 -137 -221 l-10 -55
-124 0 -124 0 -11 67 c-6 37 -23 93 -38 124 -41 88 -52 90 -388 105 -177 7
-409 9 -630 5 -396 -7 -503 -16 -520 -40 -7 -9 -14 -16 -16 -16 -2 0 -6 60 -7
133 -2 72 -5 133 -7 135 -1 1 -56 -30 -121 -69 -117 -71 -228 -152 -352 -257
-46 -38 -69 -51 -83 -47 -18 6 -19 1 -19 -67 0 -40 9 -134 20 -208 58 -391
190 -725 387 -970 l68 -85 -17 -35 c-10 -19 -18 -53 -18 -76 0 -33 -5 -43 -22
-51 -36 -16 -240 -195 -377 -327 -136 -134 -272 -285 -374 -418 l-66 -87 16
-29 c17 -29 16 -30 -32 -98 -27 -38 -82 -113 -122 -167 -40 -54 -73 -100 -73
-102 0 -3 18 -31 39 -63 52 -75 77 -134 96 -226 60 -293 -84 -622 -347 -793
-78 -50 -76 -36 -27 -211 95 -335 334 -577 679 -687 165 -52 288 -75 439 -82
138 -6 143 -5 137 13 -3 10 -23 98 -45 194 -22 96 -60 263 -85 370 -71 312
-84 368 -110 490 -14 63 -33 142 -41 175 -9 33 -31 130 -50 215 -18 85 -50
227 -70 315 -80 355 -63 512 70 633 67 61 147 95 280 116 91 15 280 17 2090
14 l1990 -3 80 -23 c99 -29 161 -62 215 -116 77 -75 103 -152 101 -301 0 -103
-12 -165 -101 -555 -22 -96 -49 -215 -59 -265 -11 -49 -35 -153 -54 -230 -19
-77 -42 -176 -51 -220 -9 -44 -33 -150 -52 -235 -65 -286 -122 -545 -127 -579
-3 -18 202 -15 343 5 545 81 901 398 984 879 16 90 22 367 10 400 -5 12 -401
215 -420 215 -15 0 -229 110 -266 137 -100 73 -122 184 -61 314 39 84 145 243
227 344 36 44 66 87 66 95 0 39 -240 329 -434 523 -119 120 -283 266 -381 341
-47 35 -51 42 -62 101 -6 35 -22 78 -35 95 -25 35 -97 78 -173 105 -68 25 -71
29 -36 55 17 12 58 56 90 98 183 242 304 534 346 840 14 104 22 412 10 412 -3
0 -14 -5 -24 -12 -16 -10 -27 -5 -78 38 -110 94 -232 172 -370 234 l-63 29 0
-162z m-2145 -408 c67 -25 93 -58 77 -94 -15 -33 -43 -32 -83 3 l-33 27 -345
3 c-190 1 -400 -1 -466 -5 l-120 -8 -11 -35 c-20 -62 -67 -66 -88 -8 -18 52
35 112 114 127 25 5 237 9 472 10 410 1 430 0 483 -20z m1803 -3 c66 -29 94
-103 53 -140 -27 -25 -55 -17 -59 17 -2 16 -14 34 -30 45 -23 15 -68 17 -404
21 -447 4 -516 0 -558 -36 -39 -33 -74 -28 -78 10 -5 43 35 81 103 98 17 4
233 7 480 6 416 -2 453 -3 493 -21z m293 -213 c-102 -647 -360 -1151 -731
-1429 -185 -138 -434 -237 -678 -269 -420 -55 -837 27 -1149 227 -403 258
-691 770 -813 1448 -9 56 -15 99 -11 98 3 -2 18 -10 33 -17 24 -12 33 -31 63
-130 92 -297 139 -440 162 -484 23 -46 25 -48 42 -33 25 23 35 20 85 -18 51
-39 112 -61 206 -75 86 -13 514 -26 572 -17 25 4 66 20 91 37 38 25 50 28 67
19 11 -6 20 -17 20 -25 0 -29 20 -23 69 21 65 58 108 147 162 335 28 97 38
150 34 173 -9 47 10 59 90 54 83 -5 108 -24 84 -66 -14 -25 -13 -34 19 -141
76 -255 115 -328 208 -387 56 -36 91 -43 60 -12 -21 22 -20 54 2 67 13 7 30 2
72 -22 54 -32 57 -32 205 -35 83 -2 227 1 320 6 197 12 280 32 345 87 48 40
41 38 74 26 17 -7 27 -6 35 2 11 14 78 214 146 440 46 150 50 160 84 182 20
12 38 21 40 19 2 -2 -2 -38 -8 -81z"/>
<path d="M1677 5530 c-85 -33 -145 -86 -179 -159 -22 -47 -20 -112 4 -195 16
-52 87 -121 149 -143 27 -10 49 -21 49 -24 0 -4 -9 -50 -20 -102 -10 -53 -22
-124 -26 -159 -6 -56 -4 -65 15 -82 21 -19 24 -19 124 -2 170 30 297 77 297
110 0 7 -45 80 -99 162 l-99 148 26 31 c85 101 82 253 -7 357 -64 74 -143 94
-234 58z"/>
<path d="M7918 3588 c-78 -94 -181 -241 -215 -308 -56 -111 -42 -196 40 -244
56 -33 575 -276 588 -276 7 0 8 7 4 18 -4 9 -15 56 -25 103 -10 48 -23 96 -29
108 -7 11 -21 50 -32 86 -24 78 -75 201 -130 310 -52 103 -141 255 -150 255
-4 0 -27 -24 -51 -52z"/>
<path d="M1917 3263 c-32 -48 -121 -315 -147 -442 -22 -111 -40 -274 -40 -367
0 -64 0 -65 23 -53 12 7 51 40 86 73 141 135 221 317 221 505 0 86 -18 158
-60 242 -42 82 -52 87 -83 42z"/>
</g>
</svg>
